<?xml version="1.0" encoding="UTF-8" standalone="no"?>
<!-- Generator: Adobe Illustrator 18.1.1, SVG Export Plug-In . SVG Version: 6.00 Build 0)  -->

<svg
   xmlns:dc="http://purl.org/dc/elements/1.1/"
   xmlns:cc="http://creativecommons.org/ns#"
   xmlns:rdf="http://www.w3.org/1999/02/22-rdf-syntax-ns#"
   xmlns:svg="http://www.w3.org/2000/svg"
   xmlns="http://www.w3.org/2000/svg"
   xmlns:sodipodi="http://sodipodi.sourceforge.net/DTD/sodipodi-0.dtd"
   xmlns:inkscape="http://www.inkscape.org/namespaces/inkscape"
   version="1.1"
   id="Layer_1"
   x="0px"
   y="0px"
   viewBox="95 -11 209 42"
   enable-background="new 95 -11 209 42"
   xml:space="preserve"
   inkscape:version="0.91 r13725"
   sodipodi:docname="dropbox-login.svg"><metadata
     id="metadata47"><rdf:RDF><cc:Work
         rdf:about=""><dc:format>image/svg+xml</dc:format><dc:type
           rdf:resource="http://purl.org/dc/dcmitype/StillImage" /><dc:title>google-login</dc:title></cc:Work></rdf:RDF></metadata><defs
     id="defs45"><clipPath
       clipPathUnits="userSpaceOnUse"
       id="clipPath3019"><path
         inkscape:connector-curvature="0"
         d="M 0,170 446,170 446,0 0,0 0,170 Z"
         id="path3021" /></clipPath></defs><sodipodi:namedview
     pagecolor="#ffffff"
     bordercolor="#666666"
     borderopacity="1"
     objecttolerance="10"
     gridtolerance="10"
     guidetolerance="10"
     inkscape:pageopacity="0"
     inkscape:pageshadow="2"
     inkscape:window-width="1280"
     inkscape:window-height="737"
     id="namedview43"
     showgrid="false"
     inkscape:snap-global="true"
     inkscape:snap-text-baseline="true"
     inkscape:zoom="2.246704"
     inkscape:cx="87.544097"
     inkscape:cy="-35.436608"
     inkscape:window-x="-8"
     inkscape:window-y="-8"
     inkscape:window-maximized="1"
     inkscape:current-layer="Layer_1" /><title
     id="title3">google-login</title><desc
     id="desc5">Created with Sketch.</desc><g
     id="g7"><path
       d="M100-11h199c2.8,0,5,2.2,5,5v32c0,2.8-2.2,5-5,5H100c-2.8,0-5-2.2-5-5V-6C95-8.8,97.2-11,100-11z"
       id="path9"
       fill="#DF4930"
       style="fill:#007ee5;fill-opacity:1" /><g
       id="g4333"><polygon
         id="polygon11"
         points="138,15 138,4.3 140.2,4.3 140.2,13 144.8,13 144.8,15  "
         fill="#FFFFFF" /><path
         id="path13"
         d="M145.6,11.1c0-2.2,1.5-4,4.1-4c2.6,0,4.1,1.9,4.1,4c0,2.2-1.5,4.1-4.1,4.1   C147.1,15.2,145.6,13.3,145.6,11.1z M151.6,11.1c0-1.2-0.7-2.2-2-2.2c-1.3,0-2,1-2,2.2c0,1.2,0.7,2.3,2,2.3   C150.9,13.4,151.6,12.3,151.6,11.1z"
         fill="#FFFFFF" /><path
         id="path15"
         d="M155.1,17l0.9-1.5c0.6,0.7,1.5,0.9,2.4,0.9c1,0,2.1-0.4,2.1-2v-0.8c-0.6,0.8-1.4,1.2-2.4,1.2   c-1.9,0-3.4-1.3-3.4-3.9c0-2.5,1.5-3.9,3.4-3.9c0.9,0,1.8,0.4,2.4,1.2v-1h2v7.2c0,2.9-2.3,3.6-4.2,3.6   C157.1,18.1,156.1,17.8,155.1,17z M160.6,12.3V9.8c-0.4-0.5-1.1-0.9-1.7-0.9c-1.2,0-2,0.8-2,2.1c0,1.3,0.8,2.1,2,2.1   C159.5,13.1,160.2,12.8,160.6,12.3z"
         fill="#FFFFFF" /><path
         id="path17"
         d="M164.4,5.2c0-0.7,0.5-1.2,1.2-1.2c0.7,0,1.2,0.5,1.2,1.2c0,0.7-0.5,1.2-1.2,1.2   C165,6.4,164.4,5.9,164.4,5.2z M164.6,15V7.3h2V15H164.6z"
         fill="#FFFFFF" /><path
         id="path19"
         d="M173.9,15v-4.7c0-1.1-0.6-1.4-1.4-1.4c-0.8,0-1.4,0.4-1.8,0.9V15h-2V7.3h2v1c0.5-0.6,1.5-1.2,2.7-1.2   c1.7,0,2.5,1,2.5,2.5V15H173.9z"
         fill="#FFFFFF" /><polygon
         id="polygon21"
         points="188.8,15 187.2,9.7 185.6,15 183.4,15 181,7.3 183.2,7.3 184.6,12.5 186.3,7.3 188.1,7.3    189.8,12.5 191.2,7.3 193.4,7.3 191,15  "
         fill="#FFFFFF" /><path
         id="path23"
         d="M194.2,5.2c0-0.7,0.5-1.2,1.2-1.2c0.7,0,1.2,0.5,1.2,1.2c0,0.7-0.5,1.2-1.2,1.2   C194.7,6.4,194.2,5.9,194.2,5.2z M194.4,15V7.3h2V15H194.4z"
         fill="#FFFFFF" /><path
         id="path25"
         d="M198.8,13.1V9h-1.3V7.3h1.3V5.2h2v2.1h1.6V9h-1.6v3.5c0,0.5,0.3,0.9,0.7,0.9c0.3,0,0.6-0.1,0.7-0.2l0.4,1.6   c-0.3,0.3-0.8,0.5-1.7,0.5C199.6,15.2,198.8,14.5,198.8,13.1z"
         fill="#FFFFFF" /><path
         id="path27"
         d="M209.1,15v-4.7c0-1.1-0.6-1.4-1.4-1.4c-0.8,0-1.4,0.4-1.8,0.9V15h-2V4.3h2v3.9c0.5-0.6,1.4-1.2,2.7-1.2   c1.7,0,2.5,0.9,2.5,2.4V15H209.1z"
         fill="#FFFFFF" /></g></g><g
     id="g4344"><g
       id="g4360"
       transform="matrix(0.25,0,0,0.25,88.461532,-26.415727)"><g
         id="g2995"
         transform="matrix(1.25,0,0,-1.25,85.757697,90.091779)"><path
           inkscape:connector-curvature="0"
           d="M 0,0 -29.63,-19.346 -9.143,-35.752 20.732,-17.305 0,0 Z"
           style="fill:#ffffff;fill-opacity:1;fill-rule:nonzero;stroke:none"
           id="path2997" /></g><g
         id="g2999"
         transform="matrix(1.25,0,0,-1.25,48.720322,155.29015)"><path
           inkscape:connector-curvature="0"
           d="M 0,0 29.63,-19.346 50.362,-2.04 20.487,16.407 0,0 Z"
           style="fill:#ffffff;fill-opacity:1;fill-rule:nonzero;stroke:none"
           id="path3001" /></g><g
         id="g3003"
         transform="matrix(1.25,0,0,-1.25,111.6732,157.84015)"><path
           inkscape:connector-curvature="0"
           d="M 0,0 20.733,-17.306 50.362,2.04 29.875,18.447 0,0 Z"
           style="fill:#ffffff;fill-opacity:1;fill-rule:nonzero;stroke:none"
           id="path3005" /></g><g
         id="g3007"
         transform="matrix(1.25,0,0,-1.25,174.62608,114.2739)"><path
           inkscape:connector-curvature="0"
           d="M 0,0 -29.629,19.346 -50.362,2.041 -20.487,-16.406 0,0 Z"
           style="fill:#ffffff;fill-opacity:1;fill-rule:nonzero;stroke:none"
           id="path3009" /></g><g
         id="g3011"
         transform="matrix(1.25,0,0,-1.25,111.74895,162.49415)"><path
           inkscape:connector-curvature="0"
           d="m 0,0 -20.793,-17.254 -8.897,5.809 0,-6.513 29.69,-17.805 29.691,17.805 0,6.513 -8.896,-5.809 L 0,0 Z"
           style="fill:#ffffff;fill-opacity:1;fill-rule:nonzero;stroke:none"
           id="path3013" /></g></g></g><g
     transform="matrix(0.3125,0,0,-0.25,167.69091,31.365084)"
     id="g3015"><g
       id="g3017"
       clip-path="url(#clipPath3019)"><g
         id="g3023"
         transform="translate(173.7266,102.6348)"><path
           inkscape:connector-curvature="0"
           d="m 0,0 1.955,0 c 4.619,0 10.961,-0.547 10.961,-16.562 0,-17.032 -6.419,-17.58 -10.961,-17.58 L 0,-34.142 0,0 Z m -11.43,-43.126 13.699,0 c 3.992,0 9.627,0 14.248,3.594 5.636,4.297 8.533,13.047 8.533,22.814 C 25.05,8.908 8.844,8.986 0.859,8.986 l -12.289,0 0,-52.112 z"
           style="fill:#ffffff;fill-opacity:1;fill-rule:nonzero;stroke:none"
           id="path3025" /></g><g
         id="g3027"
         transform="translate(202.7119,98.0259)"><path
           inkscape:connector-curvature="0"
           d="m 0,0 0,-38.517 10.723,0 0,16.641 c 0,2.969 0,11.876 7.905,11.876 0.393,0 0.861,0 1.799,-0.157 l 0,10.469 c -0.546,0.157 -1.092,0.236 -1.878,0.236 -6.261,0 -8.14,-6.564 -9.079,-9.845 L 9.47,0 0,0 Z"
           style="fill:#ffffff;fill-opacity:1;fill-rule:nonzero;stroke:none"
           id="path3029" /></g><g
         id="g3031"
         transform="translate(240.333,91.3848)"><path
           inkscape:connector-curvature="0"
           d="m 0,0 c 3.29,0 4.541,-2.656 4.541,-12.579 0,-10.313 -1.409,-12.579 -4.541,-12.579 -3.209,0 -4.617,2.345 -4.617,12.579 0,9.453 1.096,12.579 4.54,12.579 L 0,0 Z m 0,7.501 c -11.506,0 -15.732,-8.048 -15.732,-20.08 0,-12.422 4.538,-20.078 15.655,-20.078 11.272,0 15.734,7.734 15.734,20.078 0,12.032 -4.226,20.08 -15.657,20.08"
           style="fill:#ffffff;fill-opacity:1;fill-rule:nonzero;stroke:none"
           id="path3033" /></g><g
         id="g3035"
         transform="translate(269.7393,82.5566)"><path
           inkscape:connector-curvature="0"
           d="m 0,0 c 0,3.437 0,8.905 4.853,8.905 4.149,0 4.461,-5.389 4.461,-12.187 0,-8.126 -0.389,-12.891 -4.775,-12.891 C 0,-16.173 0,-12.891 0,-7.344 L 0,0 Z m -10.568,15.469 0,-51.565 10.568,0 0,15.859 c 1.174,-1.249 3.131,-3.357 7.358,-3.357 12.289,0 13.074,14.844 13.074,20.312 0,6.485 -1.252,12.502 -5.011,16.329 -1.877,1.875 -4.775,2.97 -7.358,2.97 -5.245,0 -7.359,-3.828 -8.69,-6.329 l 0,5.781 -9.941,0 z"
           style="fill:#ffffff;fill-opacity:1;fill-rule:nonzero;stroke:none"
           id="path3037" /></g><g
         id="g3039"
         transform="translate(303.9316,84.4312)"><path
           inkscape:connector-curvature="0"
           d="m 0,0 c 0,1.953 0,3.906 1.255,5.392 0.782,1.015 2.034,1.639 3.443,1.639 3.053,0 4.697,-2.578 4.697,-12.734 0,-9.923 -1.486,-12.578 -4.854,-12.578 C 0,-18.281 0,-13.282 0,-8.905 L 0,0 Z m -10.568,27.189 0,-52.111 6.341,0 c 0.861,2.734 1.253,3.515 2.037,5 0.937,-1.953 2.739,-5.781 8.924,-5.781 2.036,0 4.149,0.39 6.262,1.483 7.046,3.672 7.516,15.236 7.516,18.83 0,9.296 -2.975,19.533 -12.449,19.533 C 3.445,14.143 1.334,11.641 0,10 l 0,17.189 -10.568,0 z"
           style="fill:#ffffff;fill-opacity:1;fill-rule:nonzero;stroke:none"
           id="path3041" /></g><g
         id="g3043"
         transform="translate(342.8721,91.3848)"><path
           inkscape:connector-curvature="0"
           d="m 0,0 c 3.285,0 4.539,-2.656 4.539,-12.579 0,-10.313 -1.408,-12.579 -4.539,-12.579 -3.211,0 -4.622,2.345 -4.622,12.579 C -4.622,-3.126 -3.524,0 -0.079,0 L 0,0 Z m 0,7.501 c -11.509,0 -15.736,-8.048 -15.736,-20.08 0,-12.422 4.542,-20.078 15.657,-20.078 11.272,0 15.734,7.734 15.734,20.078 0,12.032 -4.228,20.08 -15.655,20.08"
           style="fill:#ffffff;fill-opacity:1;fill-rule:nonzero;stroke:none"
           id="path3045" /></g><g
         id="g3047"
         transform="translate(358.1104,98.0259)"><path
           inkscape:connector-curvature="0"
           d="m 0,0 9.943,-18.83 -11.428,-19.687 9.313,0 6.498,11.561 5.636,-11.561 11.664,0 L 20.118,-16.954 30.059,0 20.746,0 15.813,-8.906 11.665,0 0,0 Z"
           style="fill:#ffffff;fill-opacity:1;fill-rule:nonzero;stroke:none"
           id="path3049" /></g></g></g><path
     style="fill:#007ee5;fill-opacity:1"
     d="m 99.123885,22.145912 c 0,-2.349607 0.119284,-3.31081 0.265076,-2.136006 0.145792,1.174803 0.145792,3.097209 0,4.272012 -0.145792,1.174804 -0.265076,0.213601 -0.265076,-2.136006 z"
     id="path4356"
     inkscape:connector-curvature="0"
     transform="translate(95,-11)" /></svg>