<?xml version="1.0" encoding="utf-8"?>
<!-- Generator: Adobe Illustrator 18.1.1, SVG Export Plug-In . SVG Version: 6.00 Build 0)  -->
<svg version="1.1" id="Layer_1" xmlns:sketch="http://www.bohemiancoding.com/sketch/ns"
	 xmlns="http://www.w3.org/2000/svg" xmlns:xlink="http://www.w3.org/1999/xlink" x="0px" y="0px" viewBox="95 -11 209 42"
	 enable-background="new 95 -11 209 42" xml:space="preserve">
<title>google-login</title>
<desc>Created with Sketch.</desc>
<g>
	<path fill="#DF4930" d="M100-11h199c2.8,0,5,2.2,5,5v32c0,2.8-2.2,5-5,5H100c-2.8,0-5-2.2-5-5V-6C95-8.8,97.2-11,100-11z"/>
	<polygon fill="#FFFFFF" points="138,15 138,4.3 140.2,4.3 140.2,13 144.8,13 144.8,15 	"/>
	<path fill="#FFFFFF" d="M145.6,11.1c0-2.2,1.5-4,4.1-4c2.6,0,4.1,1.9,4.1,4c0,2.2-1.5,4.1-4.1,4.1
		C147.1,15.2,145.6,13.3,145.6,11.1z M151.6,11.1c0-1.2-0.7-2.2-2-2.2c-1.3,0-2,1-2,2.2c0,1.2,0.7,2.3,2,2.3
		C150.9,13.4,151.6,12.3,151.6,11.1z"/>
	<path fill="#FFFFFF" d="M155.1,17l0.9-1.5c0.6,0.7,1.5,0.9,2.4,0.9c1,0,2.1-0.4,2.1-2v-0.8c-0.6,0.8-1.4,1.2-2.4,1.2
		c-1.9,0-3.4-1.3-3.4-3.9c0-2.5,1.5-3.9,3.4-3.9c0.9,0,1.8,0.4,2.4,1.2v-1h2v7.2c0,2.9-2.3,3.6-4.2,3.6
		C157.1,18.1,156.1,17.8,155.1,17z M160.6,12.3V9.8c-0.4-0.5-1.1-0.9-1.7-0.9c-1.2,0-2,0.8-2,2.1c0,1.3,0.8,2.1,2,2.1
		C159.5,13.1,160.2,12.8,160.6,12.3z"/>
	<path fill="#FFFFFF" d="M164.4,5.2c0-0.7,0.5-1.2,1.2-1.2c0.7,0,1.2,0.5,1.2,1.2c0,0.7-0.5,1.2-1.2,1.2
		C165,6.4,164.4,5.9,164.4,5.2z M164.6,15V7.3h2V15H164.6z"/>
	<path fill="#FFFFFF" d="M173.9,15v-4.7c0-1.1-0.6-1.4-1.4-1.4c-0.8,0-1.4,0.4-1.8,0.9V15h-2V7.3h2v1c0.5-0.6,1.5-1.2,2.7-1.2
		c1.7,0,2.5,1,2.5,2.5V15H173.9z"/>
	<polygon fill="#FFFFFF" points="188.8,15 187.2,9.7 185.6,15 183.4,15 181,7.3 183.2,7.3 184.6,12.5 186.3,7.3 188.1,7.3 
		189.8,12.5 191.2,7.3 193.4,7.3 191,15 	"/>
	<path fill="#FFFFFF" d="M194.2,5.2c0-0.7,0.5-1.2,1.2-1.2c0.7,0,1.2,0.5,1.2,1.2c0,0.7-0.5,1.2-1.2,1.2
		C194.7,6.4,194.2,5.9,194.2,5.2z M194.4,15V7.3h2V15H194.4z"/>
	<path fill="#FFFFFF" d="M198.8,13.1V9h-1.3V7.3h1.3V5.2h2v2.1h1.6V9h-1.6v3.5c0,0.5,0.3,0.9,0.7,0.9c0.3,0,0.6-0.1,0.7-0.2l0.4,1.6
		c-0.3,0.3-0.8,0.5-1.7,0.5C199.6,15.2,198.8,14.5,198.8,13.1z"/>
	<path fill="#FFFFFF" d="M209.1,15v-4.7c0-1.1-0.6-1.4-1.4-1.4c-0.8,0-1.4,0.4-1.8,0.9V15h-2V4.3h2v3.9c0.5-0.6,1.4-1.2,2.7-1.2
		c1.7,0,2.5,0.9,2.5,2.4V15H209.1z"/>
	<path fill="#FFFFFF" d="M216.8,9.7c0-3.4,2.6-5.5,5.7-5.5c2.2,0,3.6,1.1,4.4,2.4l-1.9,1c-0.5-0.8-1.4-1.4-2.5-1.4
		c-2,0-3.4,1.5-3.4,3.5s1.4,3.5,3.4,3.5c0.9,0,1.8-0.4,2.3-0.8v-1.3h-2.8v-2h5.1v4.1c-1.1,1.2-2.6,2-4.5,2
		C219.3,15.2,216.8,13,216.8,9.7z"/>
	<path fill="#FFFFFF" d="M228.2,11.1c0-2.2,1.5-4,4.1-4c2.6,0,4.1,1.9,4.1,4c0,2.2-1.5,4.1-4.1,4.1
		C229.8,15.2,228.2,13.3,228.2,11.1z M234.3,11.1c0-1.2-0.7-2.2-2-2.2c-1.3,0-2,1-2,2.2c0,1.2,0.7,2.3,2,2.3
		C233.6,13.4,234.3,12.3,234.3,11.1z"/>
	<path fill="#FFFFFF" d="M237.4,11.1c0-2.2,1.5-4,4.1-4c2.6,0,4.1,1.9,4.1,4c0,2.2-1.5,4.1-4.1,4.1C239,15.2,237.4,13.3,237.4,11.1z
		 M243.5,11.1c0-1.2-0.7-2.2-2-2.2c-1.3,0-2,1-2,2.2c0,1.2,0.7,2.3,2,2.3C242.8,13.4,243.5,12.3,243.5,11.1z"/>
	<path fill="#FFFFFF" d="M247,17l0.9-1.5c0.6,0.7,1.5,0.9,2.4,0.9c1,0,2.1-0.4,2.1-2v-0.8c-0.6,0.8-1.4,1.2-2.4,1.2
		c-1.9,0-3.4-1.3-3.4-3.9c0-2.5,1.5-3.9,3.4-3.9c0.9,0,1.8,0.4,2.4,1.2v-1h2v7.2c0,2.9-2.3,3.6-4.2,3.6C249,18.1,248,17.8,247,17z
		 M252.5,12.3V9.8c-0.4-0.5-1.1-0.9-1.7-0.9c-1.2,0-2,0.8-2,2.1c0,1.3,0.8,2.1,2,2.1C251.4,13.1,252.1,12.8,252.5,12.3z"/>
	<rect x="256.5" y="4.3" fill="#FFFFFF" width="2" height="10.7"/>
	<path fill="#FFFFFF" d="M260.1,11.1c0-2.2,1.7-4,4-4c2.3,0,3.9,1.7,3.9,4.2v0.5h-5.7c0.1,0.9,0.9,1.7,2.2,1.7c0.7,0,1.6-0.3,2-0.8
		l0.9,1.3c-0.8,0.7-2,1.1-3.2,1.1C261.8,15.2,260.1,13.6,260.1,11.1z M264.1,8.7c-1.3,0-1.8,0.9-1.9,1.6h3.8
		C265.9,9.7,265.4,8.7,264.1,8.7z"/>
	<path fill="#FFFFFF" d="M112.5,2h4.5v0.1c0,0.5-0.9,0.6-1.5,0.7c-0.2,0-0.6,0-0.7,0.1c1.1,0.6,1.3,1.6,1.3,3.1
		c0,1.7-0.6,2.6-1.3,3.2c-0.4,0.4-0.7,0.7-0.7,1.1c0,0.4,0.5,0.8,1,1.3c0.9,0.8,2.1,1.8,2.1,3.6c0,1.9-0.8,3.2-2.3,3.9
		c-1.2,0.6-2.4,0.7-3,0.7l-0.2,0l-0.1,0c-0.8,0-4.6-0.2-4.6-3.8c0-3.5,4.1-3.8,5.4-3.8h0c-0.7-1-0.6-2-0.6-2h-0.3
		c-0.5,0-1.4-0.1-2.2-0.6c-1-0.6-1.5-1.7-1.5-3.2C107.9,2.2,112.5,2,112.5,2z M112.4,13.2h-0.3c-0.9,0-1.7,0.4-2.2,0.9
		c-0.6,0.5-0.9,1.2-0.8,1.9c0.1,1.4,1.6,2.2,3.4,2.1c1.8-0.1,3-1.2,2.9-2.6C115.2,14.2,114.1,13.2,112.4,13.2z M111.7,3.3
		c-0.1,0-0.2,0-0.4,0c-0.5,0.2-0.9,0.6-1.1,1.3c-0.2,0.6-0.2,1.3,0,2.1c0.4,1.4,1.3,2.4,2.3,2.4c0.1,0,0.2,0,0.4,0
		c1.1-0.3,1.8-2,1.3-3.6C113.6,3.7,112.8,3.3,111.7,3.3z M124.7,9v1.9h-3v3h-1.9v-3h-3V9h3v-3h1.9v3H124.7z"/>
</g>
</svg>
